<svg width="126" height="91" viewBox="0 0 126 91" fill="none" xmlns="http://www.w3.org/2000/svg">
<g id="Group 22">
<g id="Rectangle 2" filter="url(#filter0_d_207_1900)">
<rect x="8" width="53" height="40" fill="#28C9D3"/>
</g>
<path id="Cee-Jay" d="M21.456 70.0866H16.1293C16.0582 69.5398 15.9126 69.0462 15.6925 68.6058C15.4723 68.1655 15.1811 67.7891 14.8189 67.4766C14.4567 67.1641 14.027 66.9261 13.5298 66.7628C13.0398 66.5923 12.4964 66.5071 11.8999 66.5071C10.8416 66.5071 9.92898 66.7663 9.16193 67.2848C8.40199 67.8033 7.81605 68.5526 7.40412 69.5327C6.99929 70.5128 6.79688 71.6989 6.79688 73.0909C6.79688 74.5398 7.00284 75.7543 7.41477 76.7344C7.83381 77.7074 8.41974 78.4425 9.17259 78.9396C9.93253 79.4297 10.831 79.6747 11.8679 79.6747C12.4503 79.6747 12.9794 79.6001 13.4553 79.451C13.9382 79.3018 14.3608 79.0852 14.723 78.8011C15.0923 78.5099 15.3942 78.1584 15.6286 77.7464C15.87 77.3274 16.0369 76.8551 16.1293 76.3295L21.456 76.3615C21.3636 77.3274 21.0831 78.2791 20.6143 79.2166C20.1527 80.1541 19.517 81.0099 18.7074 81.7841C17.8977 82.5511 16.9105 83.1619 15.7457 83.6165C14.5881 84.071 13.2599 84.2983 11.7614 84.2983C9.78693 84.2983 8.01847 83.8651 6.45597 82.9986C4.90057 82.125 3.67188 80.8537 2.76989 79.1847C1.8679 77.5156 1.4169 75.4844 1.4169 73.0909C1.4169 70.6903 1.875 68.6555 2.79119 66.9865C3.70739 65.3175 4.94673 64.0497 6.50923 63.1832C8.07173 62.3168 9.82244 61.8835 11.7614 61.8835C13.0824 61.8835 14.304 62.0682 15.4261 62.4375C16.5483 62.7997 17.5355 63.3324 18.3878 64.0355C19.2401 64.7315 19.9325 65.5874 20.4652 66.603C20.9979 67.6186 21.3281 68.7798 21.456 70.0866ZM32.1227 84.3089C30.411 84.3089 28.9338 83.9716 27.6909 83.2969C26.4551 82.6151 25.5034 81.6456 24.8358 80.3885C24.1752 79.1243 23.845 77.6222 23.845 75.8821C23.845 74.1918 24.1788 72.7145 24.8464 71.4503C25.514 70.179 26.4551 69.1918 27.6696 68.4886C28.8841 67.7784 30.3152 67.4233 31.9629 67.4233C33.1277 67.4233 34.193 67.6044 35.1589 67.9666C36.1248 68.3288 36.9593 68.8651 37.6625 69.5753C38.3656 70.2855 38.9125 71.1626 39.3031 72.2067C39.6937 73.2436 39.889 74.4332 39.889 75.7756V77.0753H25.6667V74.0497H35.0417C35.0346 73.4957 34.9032 73.0021 34.6476 72.5689C34.3919 72.1357 34.0403 71.7983 33.5929 71.5568C33.1525 71.3082 32.6447 71.1839 32.0694 71.1839C31.487 71.1839 30.965 71.3153 30.5034 71.5781C30.0417 71.8338 29.676 72.1854 29.4061 72.6328C29.1362 73.0732 28.9941 73.5739 28.9799 74.1349V77.2138C28.9799 77.8814 29.1113 78.4673 29.3741 78.9716C29.6369 79.4687 30.0098 79.8558 30.4927 80.1328C30.9757 80.4098 31.551 80.5483 32.2186 80.5483C32.6802 80.5483 33.0993 80.4844 33.4757 80.3565C33.8521 80.2287 34.1752 80.0405 34.4451 79.7919C34.715 79.5433 34.9174 79.2379 35.0524 78.8757L39.8358 79.0142C39.6369 80.0866 39.2001 81.0206 38.5254 81.8161C37.8578 82.6044 36.9806 83.2187 35.894 83.6591C34.8074 84.0923 33.5502 84.3089 32.1227 84.3089ZM50.1989 84.3089C48.4872 84.3089 47.0099 83.9716 45.767 83.2969C44.5313 82.6151 43.5795 81.6456 42.9119 80.3885C42.2514 79.1243 41.9212 77.6222 41.9212 75.8821C41.9212 74.1918 42.255 72.7145 42.9226 71.4503C43.5902 70.179 44.5312 69.1918 45.7457 68.4886C46.9602 67.7784 48.3913 67.4233 50.0391 67.4233C51.2038 67.4233 52.2692 67.6044 53.2351 67.9666C54.201 68.3288 55.0355 68.8651 55.7386 69.5753C56.4418 70.2855 56.9886 71.1626 57.3793 72.2067C57.7699 73.2436 57.9652 74.4332 57.9652 75.7756V77.0753H43.7429V74.0497H53.1179C53.1108 73.4957 52.9794 73.0021 52.7237 72.5689C52.468 72.1357 52.1165 71.7983 51.669 71.5568C51.2287 71.3082 50.7209 71.1839 50.1456 71.1839C49.5632 71.1839 49.0412 71.3153 48.5795 71.5781C48.1179 71.8338 47.7521 72.1854 47.4822 72.6328C47.2124 73.0732 47.0703 73.5739 47.0561 74.1349V77.2138C47.0561 77.8814 47.1875 78.4673 47.4503 78.9716C47.7131 79.4687 48.0859 79.8558 48.5689 80.1328C49.0518 80.4098 49.6271 80.5483 50.2947 80.5483C50.7564 80.5483 51.1754 80.4844 51.5518 80.3565C51.9283 80.2287 52.2514 80.0405 52.5213 79.7919C52.7912 79.5433 52.9936 79.2379 53.1286 78.8757L57.9119 79.0142C57.7131 80.0866 57.2763 81.0206 56.6016 81.8161C55.9339 82.6044 55.0568 83.2187 53.9702 83.6591C52.8835 84.0923 51.6264 84.3089 50.1989 84.3089ZM71.0982 73.1655V77.1818H60.9988V73.1655H71.0982ZM83.6399 62.1818H88.8388V77.267C88.8317 78.6804 88.4943 79.9162 87.8267 80.9744C87.1591 82.0256 86.2358 82.8423 85.0568 83.4247C83.8849 84.0071 82.5284 84.2983 80.9872 84.2983C79.6236 84.2983 78.3842 84.0604 77.2692 83.5845C76.1612 83.1087 75.277 82.37 74.6165 81.3686C73.9631 80.3672 73.6399 79.0852 73.647 77.5227H78.8991C78.9205 78.0838 79.027 78.5632 79.2188 78.9609C79.4176 79.3516 79.6911 79.6463 80.0391 79.8452C80.3871 80.044 80.8026 80.1435 81.2855 80.1435C81.7898 80.1435 82.2159 80.0369 82.5639 79.8239C82.9119 79.6037 83.1747 79.2805 83.3523 78.8544C83.5369 78.4283 83.6328 77.8991 83.6399 77.267V62.1818ZM96.7623 84.277C95.7182 84.277 94.7914 84.103 93.9817 83.755C93.1792 83.3999 92.5435 82.8672 92.0748 82.157C91.6131 81.4396 91.3823 80.5412 91.3823 79.4616C91.3823 78.5526 91.5421 77.7855 91.8617 77.1605C92.1813 76.5355 92.6216 76.0277 93.1827 75.6371C93.7438 75.2464 94.3901 74.9517 95.1216 74.7528C95.8532 74.5469 96.6344 74.4084 97.4654 74.3374C98.3958 74.2521 99.1451 74.1634 99.7132 74.071C100.281 73.9716 100.693 73.8331 100.949 73.6555C101.212 73.4709 101.343 73.2116 101.343 72.8778V72.8246C101.343 72.2777 101.155 71.8551 100.779 71.5568C100.402 71.2585 99.8944 71.1094 99.2551 71.1094C98.5662 71.1094 98.0123 71.2585 97.5932 71.5568C97.1742 71.8551 96.9078 72.267 96.7942 72.7926L91.9895 72.6222C92.1316 71.6278 92.4973 70.7401 93.0868 69.9588C93.6834 69.1705 94.5002 68.5526 95.5371 68.1051C96.5811 67.6506 97.8347 67.4233 99.2978 67.4233C100.342 67.4233 101.304 67.5476 102.185 67.7962C103.066 68.0376 103.833 68.3928 104.486 68.8615C105.139 69.3232 105.644 69.8913 105.999 70.5661C106.361 71.2408 106.542 72.0114 106.542 72.8778V84H101.642V81.7202H101.514C101.222 82.2741 100.85 82.7429 100.395 83.1264C99.9476 83.5099 99.4185 83.7976 98.8077 83.9893C98.204 84.1811 97.5222 84.277 96.7623 84.277ZM98.3709 80.8679C98.932 80.8679 99.4363 80.7543 99.8837 80.527C100.338 80.2997 100.7 79.9872 100.97 79.5895C101.24 79.1847 101.375 78.7159 101.375 78.1832V76.6278C101.226 76.706 101.045 76.777 100.832 76.8409C100.626 76.9048 100.399 76.9652 100.15 77.022C99.9015 77.0788 99.6458 77.1286 99.383 77.1712C99.1202 77.2138 98.8681 77.2528 98.6266 77.2884C98.1365 77.3665 97.7175 77.4872 97.3695 77.6506C97.0286 77.8139 96.7658 78.027 96.5811 78.2898C96.4036 78.5455 96.3148 78.8509 96.3148 79.206C96.3148 79.7457 96.5066 80.1577 96.8901 80.4418C97.2807 80.7259 97.7743 80.8679 98.3709 80.8679ZM112.327 90.1364C111.702 90.1364 111.112 90.0866 110.558 89.9872C110.004 89.8949 109.529 89.7706 109.131 89.6143L110.281 85.8324C110.793 86.0028 111.254 86.1023 111.666 86.1307C112.085 86.1591 112.444 86.0916 112.742 85.9283C113.048 85.772 113.282 85.4915 113.445 85.0866L113.648 84.5966L107.831 67.6364H113.286L116.301 79.3125H116.471L119.529 67.6364H125.015L118.847 85.5661C118.548 86.4609 118.126 87.2493 117.579 87.9311C117.039 88.62 116.34 89.1598 115.48 89.5504C114.628 89.9411 113.577 90.1364 112.327 90.1364Z" fill="white"/>
<path id="Vector" d="M46.5738 10.4958C43.8981 8.21549 39.9186 8.62564 37.4625 11.1598L36.5006 12.151L35.5387 11.1598C33.0875 8.62564 29.1031 8.21549 26.4274 10.4958C23.361 13.1129 23.1998 17.8102 25.944 20.6471L35.3922 30.403C36.0026 31.0329 36.9938 31.0329 37.6041 30.403L47.0524 20.6471C49.8014 17.8102 49.6402 13.1129 46.5738 10.4958Z" fill="white"/>
</g>
<defs>
<filter id="filter0_d_207_1900" x="-12" y="-20" width="113" height="100" filterUnits="userSpaceOnUse" color-interpolation-filters="sRGB">
<feFlood flood-opacity="0" result="BackgroundImageFix"/>
<feColorMatrix in="SourceAlpha" type="matrix" values="0 0 0 0 0 0 0 0 0 0 0 0 0 0 0 0 0 0 127 0" result="hardAlpha"/>
<feOffset dx="10" dy="10"/>
<feGaussianBlur stdDeviation="15"/>
<feComposite in2="hardAlpha" operator="out"/>
<feColorMatrix type="matrix" values="0 0 0 0 0 0 0 0 0 0 0 0 0 0 0 0 0 0 0.25 0"/>
<feBlend mode="normal" in2="BackgroundImageFix" result="effect1_dropShadow_207_1900"/>
<feBlend mode="normal" in="SourceGraphic" in2="effect1_dropShadow_207_1900" result="shape"/>
</filter>
</defs>
</svg>
